<?xml version="1.0" encoding="UTF-8"?>
<svg width="385pt" height="385pt" version="1.1" viewBox="0 0 385 310" xmlns="http://www.w3.org/2000/svg">
 <rect x="0" y="-36" width="383" height="382" rx="80" fill="rgb(0, 75, 161)"/>
 <path fill="white" d="M 296.4 42.6 c 0 -18.8 15.1 -34.1 33.6 -34.1 c 18.5 0 33.6 15.3 33.6 34.1 c 0 18.8 -15.1 34.1 -33.6 34.1 c -18.5 0 -33.6 -15.3 -33.6 -34.1 z m 67.2 90.9 c 0 18.8 -15.1 34.1 -33.6 34.1 c -18.5 0 -33.6 -15.3 -33.6 -34.1 c 0 -18.8 15.1 -34.1 33.6 -34.1 c 18.5 0 33.6 15.3 33.6 34.1 z m -12.7 0 c 0 -11.7 -9.4 -21.2 -20.9 -21.2 c -11.5 0 -20.9 9.5 -20.9 21.2 c 0 11.7 9.4 21.2 20.9 21.2 c 11.5 0 20.9 -9.5 20.9 -21.2 z m 12.7 90.9 c 0 18.8 -15.1 34.1 -33.6 34.1 c -18.5 0 -33.6 -15.3 -33.6 -34.1 c 0 -18.8 15.1 -34.1 33.6 -34.1 c 18.5 0 33.6 15.3 33.6 34.1 z m -12.7 0 c 0 -11.7 -9.4 -21.2 -20.9 -21.2 c -11.5 0 -20.9 9.5 -20.9 21.2 c 0 11.7 9.4 21.2 20.9 21.2 c 11.5 0 20.9 -9.5 20.9 -21.2 z m -79.5 -150.8 c 3.8 12.2 -2.6 26 -14.7 31.3 l -50.2 21.9 c 4 3.1 7.1 7.4 8.7 12.4 c 2.6 8.3 0.5 17.1 -4.8 23.8 c 5.5 3.1 9.7 8.3 11.5 14.4 c 2.6 8.3 0.5 17.1 -4.8 23.8 c 5.5 3.1 9.7 8.3 11.5 14.4 c 3.8 12.2 -2.6 26 -14.7 31.3 l -19.2 8.3 c -0.6 0.3 -1.3 0.5 -2 0.7 l -104.8 29.2 c -11.2 3.1 -23 -2.7 -27.5 -13.5 l -34.8 -82.4 c -4.1 -9.6 -1.5 -20.7 6.4 -27.4 l 15.8 -13.4 c 1.3 -1.1 2.2 -2.4 2.9 -3.9 l 34.9 -80.4 c 2.3 -6.4 7.4 -11.7 13.9 -14.5 c 6.5 -2.8 13.8 -2.8 20.3 0.1 c 11.8 5.2 17.8 19 14 32 l -7.2 24.7 l 111.2 -48.4 c 6.4 -2.8 13.9 -2.7 20.2 0.3 c 6.3 3 11.3 8.5 13.4 15.4 z m -12.1 3.9 c -1.1 -3.4 -3.4 -6.1 -6.6 -7.6 c -3.1 -1.5 -6.8 -1.5 -9.9 -0.1 l -123.6 53.7 c -2.2 1 -4.9 0.5 -6.7 -1.1 c -1.9 -1.6 -2.6 -4.3 -1.9 -6.6 l 11 -37.8 c 1 -3.4 0.7 -6.9 -0.5 -9.9 c -1.3 -3 -3.5 -5.4 -6.3 -6.6 c -3.3 -1.5 -7 -1.5 -10.3 -0.1 c -3.3 1.5 -5.8 4.1 -7.1 7.5 l -35.1 80.7 c -1.4 3.3 -3.7 6.3 -6.3 8.5 l -15.8 13.4 c -3.6 3.1 -4.7 8.1 -2.9 12.4 l 34.8 82.4 c 2.1 4.9 7.4 7.5 12.5 6.2 l 104.8 -29.2 l 19.5 -8.4 c 6.2 -2.6 9.5 -9.4 7.6 -15.5 c -1.1 -3.4 -3.4 -6.1 -6.6 -7.6 c -3.1 -1.5 -6.8 -1.5 -9.9 -0.1 l -6.1 2.6 c -3.2 1.4 -7 -0.1 -8.3 -3.4 c -1.3 -3.3 0.1 -7.1 3.3 -8.4 l 13.2 -5.7 c 6.2 -2.6 9.5 -9.5 7.6 -15.5 c -1.1 -3.4 -3.4 -6.1 -6.6 -7.6 c -3.1 -1.5 -6.8 -1.5 -9.9 -0.1 l -13.9 6.1 c -3.2 1.4 -7 -0.1 -8.3 -3.4 c -1.3 -3.3 0.1 -7.1 3.3 -8.4 l 21.2 -9.2 c 6.2 -2.6 9.5 -9.5 7.6 -15.5 c -1.1 -3.4 -3.4 -6.1 -6.6 -7.6 c -3.1 -1.5 -6.8 -1.5 -9.9 -0.1 l -21.9 9.5 c -3.2 1.4 -7 -0.1 -8.3 -3.4 c -1.3 -3.3 0.1 -7.1 3.3 -8.4 l 92.1 -40 c 6.2 -2.6 9.5 -9.4 7.6 -15.5 z"/>
</svg>