<?xml version="1.0" encoding="UTF-8"?>
<svg width="385pt" height="310pt" version="1.1" viewBox="0 0 385 310" xmlns="http://www.w3.org/2000/svg">
 <path fill="white" d="M 308 38.6 c 0 -20.7 16.9 -37.6 37.6 -37.6 c 20.7 0 37.6 16.9 37.6 37.6 c 0 20.7 -16.9 37.6 -37.6 37.6 c -20.7 0 -37.6 -16.9 -37.6 -37.6 z m 75.2 100.2 c 0 20.7 -16.9 37.6 -37.6 37.6 c -20.7 0 -37.6 -16.9 -37.6 -37.6 c 0 -20.7 16.9 -37.6 37.6 -37.6 c 20.7 0 37.6 16.9 37.6 37.6 z m -14.2 0 c 0 -12.9 -10.5 -23.4 -23.4 -23.4 c -12.9 0 -23.4 10.5 -23.4 23.4 c 0 12.9 10.5 23.4 23.4 23.4 c 12.9 0 23.4 -10.5 23.4 -23.4 z m 14.2 100.2 c 0 20.7 -16.9 37.6 -37.6 37.6 c -20.7 0 -37.6 -16.9 -37.6 -37.6 c 0 -20.7 16.9 -37.6 37.6 -37.6 c 20.7 0 37.6 16.9 37.6 37.6 z m -14.2 0 c 0 -12.9 -10.5 -23.4 -23.4 -23.4 c -12.9 0 -23.4 10.5 -23.4 23.4 c 0 12.9 10.5 23.4 23.4 23.4 c 12.9 0 23.4 -10.5 23.4 -23.4 z m -89 -166.2 c 4.3 13.5 -2.9 28.7 -16.5 34.5 l -56.2 24.1 c 4.5 3.4 7.9 8.2 9.7 13.7 c 2.9 9.1 0.6 18.9 -5.4 26.2 c 6.1 3.4 10.8 9.1 12.9 15.9 c 2.9 9.1 0.6 18.9 -5.4 26.2 c 6.1 3.4 10.8 9.1 12.9 15.9 c 4.3 13.5 -2.9 28.7 -16.4 34.5 l -21.5 9.2 c -0.7 0.3 -1.4 0.6 -2.2 0.8 l -117.3 32.2 c -12.5 3.4 -25.7 -3 -30.8 -14.9 l -38.9 -90.8 c -4.6 -10.6 -1.7 -22.8 7.2 -30.2 l 17.7 -14.8 c 1.4 -1.2 2.5 -2.6 3.2 -4.3 l 39.1 -88.6 c 2.6 -7 8.3 -12.9 15.5 -16 c 7.3 -3.1 15.4 -3.1 22.7 0.1 c 13.2 5.7 19.9 20.9 15.7 35.3 l -8.1 27.2 l 124.4 -53.3 c 7.2 -3.1 15.5 -3 22.6 0.3 c 7.1 3.3 12.6 9.4 15 17 z m -13.5 4.3 c -1.2 -3.8 -3.8 -6.7 -7.4 -8.4 c -3.5 -1.6 -7.6 -1.7 -11.1 -0.1 l -138.3 59.2 c -2.5 1.1 -5.5 0.6 -7.5 -1.2 c -2.1 -1.8 -2.9 -4.7 -2.1 -7.3 l 12.3 -41.7 c 1.1 -3.7 0.8 -7.6 -0.6 -10.9 c -1.4 -3.3 -3.9 -5.9 -7.1 -7.3 c -3.7 -1.6 -7.8 -1.7 -11.5 -0.1 c -3.7 1.6 -6.5 4.5 -7.9 8.3 l -39.3 89 c -1.6 3.6 -4.1 6.9 -7.1 9.4 l -17.7 14.8 c -4 3.4 -5.3 8.9 -3.3 13.7 l 38.9 90.8 c 2.3 5.4 8.3 8.3 14 6.8 l 117.3 -32.2 l 21.8 -9.3 c 6.9 -2.9 10.6 -10.4 8.5 -17.1 c -1.2 -3.8 -3.8 -6.7 -7.4 -8.4 c -3.5 -1.6 -7.6 -1.7 -11.1 -0.1 l -6.8 2.9 c -3.6 1.5 -7.8 -0.1 -9.3 -3.7 c -1.5 -3.6 0.1 -7.8 3.7 -9.3 l 14.8 -6.3 c 6.9 -2.9 10.6 -10.5 8.5 -17.1 c -1.2 -3.8 -3.8 -6.7 -7.4 -8.4 c -3.5 -1.6 -7.6 -1.7 -11.1 -0.1 l -15.6 6.7 c -3.6 1.5 -7.8 -0.1 -9.3 -3.7 c -1.5 -3.6 0.1 -7.8 3.7 -9.3 l 23.7 -10.1 c 6.9 -2.9 10.6 -10.5 8.5 -17.1 c -1.2 -3.8 -3.8 -6.7 -7.4 -8.4 c -3.5 -1.6 -7.6 -1.7 -11.1 -0.1 l -24.5 10.5 c -3.6 1.5 -7.8 -0.1 -9.3 -3.7 c -1.5 -3.6 0.1 -7.8 3.7 -9.3 l 103 -44.1 c 6.9 -2.9 10.6 -10.4 8.5 -17.1 z"/>
</svg>